<?xml version="1.0" encoding="UTF-8"?>
<!--Copyright 2021 tatsushi-ikeda All Rights Reserved. -->
<svg width="12" height="12" version="1.1" viewBox="0 0 3.175 3.175" xmlns="http://www.w3.org/2000/svg" xmlns:cc="http://creativecommons.org/ns#" xmlns:dc="http://purl.org/dc/elements/1.1/" xmlns:rdf="http://www.w3.org/1999/02/22-rdf-syntax-ns#">
 <metadata>
  <rdf:RDF>
   <cc:Work rdf:about="">
    <dc:format>image/svg+xml</dc:format>
    <dc:type rdf:resource="http://purl.org/dc/dcmitype/StillImage"/>
    <dc:title/>
   </cc:Work>
  </rdf:RDF>
 </metadata>
 <g fill="#888" shape-rendering="auto">
  <path transform="scale(.26458)" d="m2 2.502a0.50005 0.50005 0 0 0-0.50195 0.49414v8.002a0.50005 0.50005 0 0 0 0.50195 0.50391h6.998a0.50005 0.50005 0 0 0 0.50195-0.50391v-2.084l-0.78906 0.79297a1 1 0 0 1-0.21484 0.16211v0.62695h-5.9941v-6.998h5.9941v0.63281a1 1 0 0 1 0.21484 0.16602l0.78906 0.78906v-2.0898a0.50005 0.50005 0 0 0-0.50195-0.49414h-6.998z" color="#000000" color-rendering="auto" dominant-baseline="auto" image-rendering="auto" opacity=".998" solid-color="#000000" stop-color="#000000" style="font-feature-settings:normal;font-variant-alternates:normal;font-variant-caps:normal;font-variant-east-asian:normal;font-variant-ligatures:normal;font-variant-numeric:normal;font-variant-position:normal;font-variation-settings:normal;inline-size:0;isolation:auto;mix-blend-mode:normal;shape-margin:0;shape-padding:0;text-decoration-color:#000000;text-decoration-line:none;text-decoration-style:solid;text-indent:0;text-orientation:mixed;text-transform:none;white-space:normal"/>
  <path transform="scale(.26458)" d="m7.9785 4.498a0.50079 0.50079 0 0 0-0.050781 0.0058593 0.50079 0.50079 0 0 0-0.2793 0.13867 0.50079 0.50079 0 0 0 0 0.70898l1.1426 1.1445h-4.7891a0.501 0.501 0 0 0-0.50391 0.50195 0.501 0.501 0 0 0 0.50391 0.50195h4.7891l-1.1426 1.1445a0.50079 0.50079 0 0 0 0 0.70898 0.50079 0.50079 0 0 0 0.70703 0l1.9746-1.9746a0.501 0.501 0 0 0 0.027344-0.027344 0.501 0.501 0 0 0 0.039062-0.044922 0.501 0.501 0 0 0 0.033204-0.048828 0.501 0.501 0 0 0 0.074218-0.25977 0.501 0.501 0 0 0-0.14648-0.35352l-0.015625-0.017578a0.501 0.501 0 0 0-0.009766-0.0078125l-1.9766-1.9766a0.50079 0.50079 0 0 0-0.37695-0.14453z" color="#000000" color-rendering="auto" dominant-baseline="auto" image-rendering="auto" solid-color="#000000" stop-color="#000000" style="font-feature-settings:normal;font-variant-alternates:normal;font-variant-caps:normal;font-variant-east-asian:normal;font-variant-ligatures:normal;font-variant-numeric:normal;font-variant-position:normal;font-variation-settings:normal;inline-size:0;isolation:auto;mix-blend-mode:normal;shape-margin:0;shape-padding:0;text-decoration-color:#000000;text-decoration-line:none;text-decoration-style:solid;text-indent:0;text-orientation:mixed;text-transform:none;white-space:normal"/>
 </g>
</svg>
